<svg width="32" height="32" viewBox="0 0 32 32" fill="none" xmlns="http://www.w3.org/2000/svg">
  <!-- Fondo circular -->
  <circle cx="16" cy="16" r="15" fill="#3B8048"/>
  
  <!-- Cuerpo del cerdito -->
  <ellipse cx="16" cy="18" rx="9" ry="8" fill="#FED16A"/>
  
  <!-- Cabeza del cerdito -->
  <circle cx="16" cy="12" r="6" fill="#FED16A"/>
  
  <!-- Hocico -->
  <ellipse cx="16" cy="14" rx="3" ry="2" fill="#FFF4A4"/>
  
  <!-- Nariz -->
  <ellipse cx="16" cy="15" rx="1" ry="0.8" fill="#0C1A0E"/>
  
  <!-- Ojos -->
  <circle cx="14" cy="11" r="1" fill="#0C1A0E"/>
  <circle cx="18" cy="11" r="1" fill="#0C1A0E"/>
  
  <!-- Orejas -->
  <ellipse cx="12" cy="9" rx="1.5" ry="2.5" fill="#FED16A" transform="rotate(-20 12 9)"/>
  <ellipse cx="20" cy="9" rx="1.5" ry="2.5" fill="#FED16A" transform="rotate(20 20 9)"/>
  
  <!-- Patas -->
  <ellipse cx="13" cy="25" rx="1.5" ry="2" fill="#FED16A"/>
  <ellipse cx="19" cy="25" rx="1.5" ry="2" fill="#FED16A"/>
  
  <!-- Cola -->
  <path d="M7 18 Q4 16 5 14" stroke="#FED16A" stroke-width="1.5" fill="none" stroke-linecap="round"/>
  
  <!-- Alcancía -->
  <rect x="22" y="12" width="6" height="8" rx="1" fill="#0C1A0E"/>
  <rect x="23" y="13" width="4" height="6" rx="0.5" fill="#3B8048"/>
  
  <!-- Ranura de monedas -->
  <rect x="24" y="10" width="2" height="4" rx="1" fill="#0C1A0E"/>
  
  <!-- Monedas -->
  <circle cx="25" cy="9" r="0.8" fill="#FED16A"/>
  <circle cx="26" cy="8" r="0.8" fill="#FED16A"/>
  
  <!-- Símbolo de dinero -->
  <text x="25" cy="20" font-family="Arial, sans-serif" font-size="3" font-weight="bold" fill="#FED16A" text-anchor="middle">$</text>
</svg>

